<?xml version="1.0" standalone="no"?>
<!DOCTYPE svg PUBLIC "-//W3C//DTD SVG 20010904//EN"
 "http://www.w3.org/TR/2001/REC-SVG-20010904/DTD/svg10.dtd">
<svg version="1.0" xmlns="http://www.w3.org/2000/svg"
 width="1024.000000pt" height="1024.000000pt" viewBox="0 0 1024.000000 1024.000000"
 preserveAspectRatio="xMidYMid meet">
<metadata>
Created by potrace 1.16, written by Peter Selinger 2001-2019
</metadata>
<g transform="translate(0.000000,1024.000000) scale(0.100000,-0.100000)"
fill="#000000" stroke="none">
<path d="M0 5120 l0 -5120 5120 0 5120 0 0 5120 0 5120 -5120 0 -5120 0 0
-5120z m562 4695 c8 -19 8 -28 -2 -40 -7 -8 -10 -18 -6 -22 3 -4 13 3 22 15
15 22 48 28 71 14 6 -4 11 -28 11 -54 l0 -47 -104 0 -104 -1 0 74 c0 40 3 76
7 79 3 4 26 7 50 7 36 0 45 -4 55 -25z m1128 0 c0 -8 7 -15 15 -15 8 0 15 -4
15 -10 0 -5 -9 -10 -21 -10 -17 0 -20 -5 -17 -32 3 -32 5 -33 51 -34 50 -2 60
8 26 26 -32 18 -22 55 15 55 16 0 31 -6 34 -14 3 -10 -2 -12 -22 -7 -33 8 -34
-7 -1 -22 14 -7 25 -20 25 -31 0 -26 -34 -45 -57 -33 -9 5 -34 7 -55 5 l-38
-6 0 47 c0 42 -2 46 -25 46 -23 0 -25 -4 -25 -45 0 -33 -4 -45 -15 -45 -12 0
-15 13 -15 60 l0 61 35 -7 c27 -5 36 -3 41 10 8 20 34 21 34 1z m7678 -1487
l-3 -133 -27 -3 -28 -3 0 113 c0 139 5 158 36 158 l25 0 -3 -132z m-6630 -87
c10 -6 13 -47 14 -167 l0 -159 -23 0 c-23 0 -24 3 -21 55 2 30 -1 102 -7 158
-6 57 -8 108 -5 113 7 11 25 11 42 0z m110 -243 c2 -114 0 -138 -12 -138 -8 0
-28 -17 -46 -37 -17 -21 -28 -32 -24 -24 7 15 11 73 13 233 l1 106 33 -1 32
-2 3 -137z m6038 -18 c-4 -74 -12 -140 -18 -147 -6 -7 -7 -13 -2 -13 5 0 0 -8
-11 -16 -14 -11 -16 -18 -7 -21 13 -5 16 -41 6 -67 -3 -9 -18 -16 -33 -16 -25
0 -26 1 -22 57 2 34 8 61 16 65 7 5 11 18 9 30 -3 17 -1 15 7 -5 9 -22 14 -26
25 -16 21 17 14 136 -8 123 -5 -3 -6 -22 -2 -41 5 -26 4 -34 -5 -29 -7 5 -11
46 -11 120 l0 112 31 -1 32 0 -7 -135z m-2416 -46 c6 -14 10 -38 10 -54 0 -16
5 -32 10 -35 6 -4 10 -107 10 -276 0 -259 -1 -269 -19 -269 -11 0 -26 -3 -35
-6 -14 -5 -15 28 -12 327 3 184 5 335 5 337 4 11 23 -3 31 -24z m1300 -595 l0
-270 -27 3 -28 3 -3 255 c-1 140 0 260 3 267 2 7 16 13 30 13 l25 0 0 -271z
m-1770 -76 c0 -5 3 -105 7 -224 l6 -216 -36 0 -37 0 0 224 0 223 30 0 c17 0
30 -3 30 -7z m-2680 -952 c0 -92 -4 -142 -11 -147 -8 -4 -7 -9 2 -15 10 -6 8
-9 -9 -9 -15 0 -21 4 -16 12 5 7 2 9 -7 6 -12 -5 -14 16 -11 131 1 75 4 142 7
149 2 6 14 12 25 12 19 0 20 -6 20 -139z m-1404 83 c7 -48 -7 -205 -21 -237
-5 -12 -3 -17 6 -15 7 2 15 -6 17 -17 3 -17 2 -18 -10 -7 -11 11 -15 -3 -24
-85 -11 -94 -11 -88 -13 148 0 135 2 249 6 252 18 18 32 3 39 -39z m1586
-1561 c-584 -2 -1540 -2 -2125 0 -584 1 -106 2 1063 2 1169 0 1647 -1 1062 -2z"/>
</g>
</svg>
